{"glyphs":{"0":{"ha":1951,"x_min":0,"x_max":0,"o":"m 275 511 b 463 846 275 713 350 846 l 1489 846 b 1676 511 1601 846 1676 713 b 1489 175 1676 310 1601 175 l 463 175 b 275 511 350 175 275 310 z m 463 0 l 1489 0 b 1851 513 1707 0 1851 204 b 1489 1022 1851 817 1707 1022 l 463 1022 b 100 513 244 1022 100 817 b 463 0 100 204 244 0 z "},"1":{"ha":588,"x_min":0,"x_max":0,"o":"m 301 0 l 476 0 l 476 1022 l 301 1022 b 83 861 301 925 214 861 l 83 686 b 301 733 167 686 240 701 z "},"2":{"ha":1956,"x_min":0,"x_max":0,"o":"m 104 0 l 1856 0 l 1856 175 l 279 175 l 279 299 b 467 424 279 378 354 424 l 1493 424 b 1856 725 1711 424 1856 543 b 1493 1022 1856 908 1711 1022 l 104 1022 l 104 846 l 1493 846 b 1681 722 1606 846 1681 801 b 1493 599 1681 643 1606 599 l 467 599 b 104 303 249 599 104 485 z "},"3":{"ha":1950,"x_min":0,"x_max":0,"o":"m 1847 303 b 1756 513 1847 390 1814 461 b 1847 725 1814 565 1847 638 b 1485 1022 1847 908 1703 1022 l 96 1022 l 96 846 l 1485 846 b 1672 722 1597 846 1672 801 b 1485 599 1672 643 1597 599 l 242 599 l 242 424 l 1485 424 b 1672 299 1597 424 1672 378 b 1485 175 1672 221 1597 175 l 96 175 l 96 0 l 1485 0 b 1847 303 1703 0 1847 119 z "},"4":{"ha":1967,"x_min":0,"x_max":0,"o":"m 1681 0 l 1856 0 l 1856 1022 l 1681 1022 l 1681 482 l 279 482 l 279 1022 l 104 1022 l 104 307 l 1681 307 z "},"5":{"ha":1960,"x_min":0,"x_max":0,"o":"m 108 1022 l 108 424 l 1497 424 b 1685 299 1610 424 1685 378 b 1497 175 1685 221 1610 175 l 108 175 l 108 0 l 1497 0 b 1860 296 1715 0 1860 114 b 1497 599 1860 479 1715 599 l 283 599 l 283 846 l 1860 846 l 1860 1022 z "},"6":{"ha":1957,"x_min":0,"x_max":0,"o":"m 469 424 l 1494 424 b 1682 299 1607 424 1682 378 b 1494 175 1682 221 1607 175 l 468 175 b 281 299 356 175 281 221 b 469 424 281 378 357 424 z m 1857 299 b 1494 599 1857 482 1713 599 l 469 599 b 281 563 397 599 333 585 l 281 722 b 468 846 281 801 356 846 l 1857 846 l 1857 1022 l 468 1022 b 106 725 250 1022 106 908 l 106 303 b 468 0 106 119 250 0 l 1494 0 b 1857 299 1713 0 1857 117 z "},"7":{"ha":1907,"x_min":0,"x_max":0,"o":"m 76 846 l 1585 846 l 765 0 l 1006 -1 l 1828 846 l 1828 1022 l 76 1022 z "},"8":{"ha":1957,"x_min":0,"x_max":0,"o":"m 278 299 b 465 424 278 378 353 424 l 1492 424 b 1679 299 1604 424 1679 378 b 1492 175 1679 221 1604 175 l 465 175 b 278 299 353 175 278 221 z m 278 722 b 465 846 278 801 353 846 l 1492 846 b 1679 722 1604 846 1679 801 b 1492 599 1679 643 1604 599 l 465 599 b 278 722 353 599 278 643 z m 1854 303 b 1763 513 1854 390 1821 461 b 1854 725 1821 565 1854 638 b 1492 1022 1854 908 1710 1022 l 465 1022 b 103 725 247 1022 103 908 b 194 513 103 638 136 565 b 103 303 136 461 103 390 b 465 0 103 119 247 0 l 1492 0 b 1854 303 1710 0 1854 119 z "},"9":{"ha":1957,"x_min":0,"x_max":0,"o":"m 1488 599 l 463 599 b 275 722 350 599 275 643 b 463 846 275 801 350 846 l 1489 846 b 1676 722 1601 846 1676 801 b 1488 599 1676 643 1600 599 z m 100 722 b 463 424 100 540 244 424 l 1488 424 b 1676 460 1560 424 1624 436 l 1676 299 b 1489 175 1676 221 1601 175 l 100 175 l 100 0 l 1489 0 b 1851 296 1707 0 1851 114 l 1851 719 b 1489 1022 1851 901 1707 1022 l 463 1022 b 100 722 244 1022 100 906 z "},"\u0000":{"ha":0,"x_min":0,"x_max":0,"o":""}," ":{"ha":796,"x_min":0,"x_max":0,"o":""},"\n":{"ha":0,"x_min":0,"x_max":0,"o":""},"!":{"ha":385,"x_min":0,"x_max":0,"o":"m 104 175 l 104 0 l 279 0 l 279 175 z m 171 292 l 215 292 l 279 731 l 279 1022 l 104 1022 l 104 729 z "},"\"":{"ha":633,"x_min":0,"x_max":0,"o":"m 418 642 l 519 642 l 549 1022 l 374 1022 z m 126 642 l 228 642 l 257 1022 l 82 1022 z "},"#":{"ha":1158,"x_min":0,"x_max":0,"o":"m 489 453 l 519 569 l 665 569 l 635 453 z m 949 278 l 993 453 l 810 453 l 840 569 l 1024 569 l 1071 744 l 886 744 l 958 1024 l 783 1024 l 711 744 l 565 744 l 638 1024 l 463 1024 l 390 744 l 210 744 l 163 569 l 344 569 l 314 453 l 132 453 l 88 278 l 268 278 l 196 0 l 371 0 l 443 278 l 589 278 l 517 0 l 692 0 l 765 278 z "},"$":{"ha":1951,"x_min":0,"x_max":0,"o":"m 1076 175 l 1076 424 l 1489 424 b 1676 299 1601 424 1676 378 b 1489 175 1676 221 1601 175 z m 931 599 l 463 599 b 275 722 350 599 275 643 b 463 846 275 801 350 846 l 931 846 z m 931 -149 l 1076 -149 l 1076 0 l 1489 0 b 1851 303 1707 0 1851 119 b 1489 599 1851 485 1707 599 l 1076 599 l 1076 846 l 1851 846 l 1851 1022 l 1076 1022 l 1076 1169 l 931 1169 l 931 1022 l 463 1022 b 100 725 244 1022 100 908 b 463 424 100 543 244 424 l 931 424 l 931 175 l 100 175 l 100 0 l 931 0 z "},"%":{"ha":2460,"x_min":0,"x_max":0,"o":"m 1582 101 b 1476 290 1518 101 1476 176 b 1582 481 1476 404 1518 481 l 2163 481 b 2268 290 2226 481 2268 404 b 2163 101 2268 176 2226 101 z m 1378 292 b 1582 1 1378 117 1460 1 l 2163 1 b 2367 292 2285 1 2367 117 b 2163 579 2367 464 2285 579 l 1582 579 b 1378 292 1460 579 1378 464 z m 296 543 b 190 733 232 543 190 619 b 296 922 190 846 232 922 l 876 922 b 982 733 942 922 982 846 b 876 543 982 619 942 543 z m 92 735 b 296 443 92 558 174 443 l 876 443 b 1081 735 1000 443 1081 558 b 876 1022 1081 907 1000 1022 l 296 1022 b 92 735 174 1022 92 907 z m 944 0 l 1053 0 l 1521 1022 l 1411 1022 z "},"&":{"ha":1956,"x_min":0,"x_max":0,"o":"m 1032 175 l 465 175 b 278 299 353 175 278 221 b 465 424 278 378 353 424 l 504 424 z m 465 846 l 1493 846 b 1679 724 1604 846 1679 799 b 1493 599 1679 649 1604 599 l 542 599 l 390 669 b 283 764 326 700 283 725 b 465 846 283 813 357 846 z m 1492 424 b 1854 724 1710 424 1854 543 b 1492 1022 1854 903 1710 1022 l 465 1022 b 103 757 247 1022 103 914 b 221 556 103 668 150 590 l 243 546 b 103 303 154 494 103 408 b 465 0 103 119 247 0 l 1404 0 l 1729 -151 l 1810 0 l 1699 53 b 1838 325 1793 108 1847 204 l 1663 321 b 1478 175 1678 229 1600 175 l 1440 175 l 913 424 z "},"'":{"ha":342,"x_min":0,"x_max":0,"o":"m 126 642 l 228 642 l 257 1022 l 82 1022 z "},"(":{"ha":467,"x_min":0,"x_max":0,"o":"m 492 -394 b 285 -151 368 -394 285 -297 l 285 806 b 493 1054 285 954 368 1054 l 493 1200 b 110 806 263 1200 110 1042 l 110 -151 b 492 -540 110 -385 263 -540 z "},")":{"ha":467,"x_min":0,"x_max":0,"o":"m -26 -540 b 356 -151 203 -540 356 -385 l 356 806 b -28 1200 356 1042 203 1200 l -28 1054 b 181 806 97 1054 181 954 l 181 -151 b -26 -394 181 -297 97 -394 z "},"*":{"ha":743,"x_min":0,"x_max":0,"o":"m 278 464 l 463 464 l 438 621 l 557 518 l 656 676 l 494 744 l 658 804 l 563 964 l 433 853 l 463 1021 l 278 1021 l 306 857 l 182 968 l 85 810 l 247 746 l 85 682 l 178 522 l 303 625 z "},"+":{"ha":1151,"x_min":0,"x_max":0,"o":"m 488 165 l 663 165 l 663 424 l 1067 424 l 1067 599 l 663 599 l 663 857 l 488 857 l 488 599 l 83 599 l 83 424 l 488 424 z "},",":{"ha":318,"x_min":0,"x_max":0,"o":"m 71 175 l 71 0 l 171 0 l 39 -147 l 100 -147 l 246 0 l 246 175 z "},"-":{"ha":528,"x_min":0,"x_max":0,"o":"m 456 339 l 456 514 l 71 514 l 71 339 z "},".":{"ha":318,"x_min":0,"x_max":0,"o":"m 246 0 l 246 175 l 71 175 l 71 0 z "},"/":{"ha":676,"x_min":0,"x_max":0,"o":"m 78 0 l 263 0 l 600 1022 l 415 1022 z "},":":{"ha":346,"x_min":0,"x_max":0,"o":"m 85 175 l 85 0 l 260 0 l 260 175 z m 85 1022 l 85 846 l 260 846 l 260 1022 z "},";":{"ha":346,"x_min":0,"x_max":0,"o":"m 85 175 l 85 0 l 185 0 l 53 -147 l 114 -147 l 260 0 l 260 175 z m 85 1022 l 85 846 l 260 846 l 260 1022 z "},"<":{"ha":858,"x_min":0,"x_max":0,"o":"m 83 329 l 763 8 l 763 206 l 338 403 l 763 603 l 763 797 l 83 476 z "},"=":{"ha":1004,"x_min":0,"x_max":0,"o":"m 85 213 l 918 213 l 918 389 l 85 389 z m 85 486 l 918 486 l 918 661 l 85 661 z "},">":{"ha":858,"x_min":0,"x_max":0,"o":"m 775 476 l 96 797 l 96 603 l 521 403 l 96 206 l 96 8 l 775 329 z "},"?":{"ha":1917,"x_min":0,"x_max":0,"o":"m 642 175 l 642 0 l 817 0 l 817 175 z m 646 278 l 821 278 l 821 299 b 1007 424 821 378 896 424 l 1465 424 b 1828 725 1683 424 1828 543 b 1465 1022 1828 908 1683 1022 l 76 1022 l 76 846 l 1465 846 b 1653 722 1578 846 1653 801 b 1465 599 1653 643 1578 599 l 1007 599 b 646 303 790 599 646 485 z "},"@":{"ha":1954,"x_min":0,"x_max":0,"o":"m 1406 207 l 747 207 b 561 340 635 207 561 264 b 747 468 561 414 635 468 l 1406 468 z m 386 340 b 747 32 386 160 531 32 l 1406 32 l 1406 -32 b 1518 -144 1406 -97 1451 -144 l 1651 -144 b 1847 94 1768 -144 1847 -50 l 1847 624 b 1504 1024 1847 863 1710 1024 l 486 1024 b 107 638 268 1024 107 868 l 107 54 b 472 -362 107 -194 253 -362 l 1808 -362 l 1808 -217 l 511 -217 b 253 49 350 -217 253 -114 l 253 629 b 511 878 253 778 354 878 l 1479 878 b 1701 614 1617 878 1701 776 l 1701 119 b 1626 -4 1701 44 1668 -4 b 1551 89 1581 -4 1551 15 l 1553 468 l 1553 643 l 747 643 b 386 340 531 643 386 521 z "},"A":{"ha":1774,"x_min":0,"x_max":0,"o":"m 996 1021 l 997 1022 l 778 1022 l 778 1021 l 11 0 l 231 0 l 449 292 l 1325 292 l 1543 0 l 1763 0 z m 886 874 l 1193 467 l 581 467 z "},"B":{"ha":1946,"x_min":0,"x_max":0,"o":"m 286 175 l 286 424 l 1500 424 b 1688 299 1613 424 1688 378 b 1500 175 1688 221 1613 175 z m 286 599 l 286 846 l 1500 846 b 1688 722 1613 846 1688 801 b 1500 599 1688 643 1613 599 z m 1863 303 b 1771 513 1863 390 1829 461 b 1863 725 1829 565 1863 638 b 1500 1022 1863 908 1718 1022 l 111 1022 l 111 0 l 1500 0 b 1863 303 1718 0 1863 119 z "},"C":{"ha":1869,"x_min":0,"x_max":0,"o":"m 64 513 b 572 0 64 207 267 0 l 1815 0 l 1815 175 l 572 175 b 239 511 372 175 239 310 b 572 846 239 713 372 846 l 1815 846 l 1815 1022 l 572 1022 b 64 513 267 1022 64 817 z "},"D":{"ha":1926,"x_min":0,"x_max":0,"o":"m 286 846 l 1354 846 b 1688 511 1554 846 1688 713 b 1354 175 1688 310 1554 175 l 286 175 z m 111 0 l 1354 0 b 1863 513 1660 0 1863 207 b 1354 1022 1863 817 1660 1022 l 111 1022 z "},"E":{"ha":1922,"x_min":0,"x_max":0,"o":"m 111 0 l 1863 0 l 1863 175 l 286 175 l 286 424 l 1717 424 l 1717 599 l 286 599 l 286 846 l 1863 846 l 1863 1022 l 111 1022 z "},"F":{"ha":1893,"x_min":0,"x_max":0,"o":"m 111 0 l 286 0 l 286 424 l 1717 424 l 1717 599 l 286 599 l 286 846 l 1863 846 l 1863 1022 l 111 1022 z "},"G":{"ha":1915,"x_min":0,"x_max":0,"o":"m 64 513 b 572 0 64 207 267 0 l 1467 0 b 1828 303 1683 0 1828 119 l 1828 599 l 1128 599 l 1128 424 l 1653 424 l 1653 299 b 1467 175 1653 221 1579 175 l 572 175 b 239 511 372 175 239 310 b 572 846 239 713 372 846 l 1815 846 l 1815 1022 l 572 1022 b 64 513 267 1022 64 817 z "},"H":{"ha":1974,"x_min":0,"x_max":0,"o":"m 1863 1022 l 1688 1022 l 1688 599 l 286 599 l 286 1022 l 111 1022 l 111 0 l 286 0 l 286 424 l 1688 424 l 1688 0 l 1863 0 z "},"I":{"ha":399,"x_min":0,"x_max":0,"o":"m 286 0 l 286 1022 l 111 1022 l 111 0 z "},"J":{"ha":1881,"x_min":0,"x_max":0,"o":"m 39 511 b 547 0 39 206 242 0 l 1282 0 b 1792 496 1583 0 1792 200 l 1792 1022 l 1617 1022 l 1617 511 b 1282 175 1617 310 1482 175 l 547 175 b 214 511 347 175 214 310 z "},"K":{"ha":1919,"x_min":0,"x_max":0,"o":"m 111 0 l 286 0 l 286 338 l 472 150 b 832 0 561 60 706 0 l 1864 0 l 1864 175 l 904 175 b 543 325 776 175 632 235 l 360 511 l 543 696 b 904 846 632 786 776 846 l 1864 846 l 1864 1022 l 832 1022 b 472 872 706 1022 561 961 l 286 686 l 286 1022 l 111 1022 z "},"L":{"ha":1890,"x_min":0,"x_max":0,"o":"m 111 0 l 1864 0 l 1864 175 l 286 175 l 286 1022 l 111 1022 z "},"M":{"ha":1975,"x_min":0,"x_max":0,"o":"m 111 0 l 286 0 l 286 793 l 896 0 l 1076 0 l 1688 794 l 1688 0 l 1863 0 l 1863 1022 l 1642 1022 l 988 169 l 332 1022 l 110 1022 l 111 1021 z "},"N":{"ha":1974,"x_min":0,"x_max":0,"o":"m 111 0 l 286 0 l 286 815 l 1688 0 l 1863 0 l 1863 1022 l 1688 1022 l 1688 203 l 286 1022 l 111 1022 z "},"O":{"ha":1879,"x_min":0,"x_max":0,"o":"m 239 511 b 572 846 239 713 372 846 l 1307 846 b 1640 511 1507 846 1640 713 b 1307 175 1640 310 1507 175 l 572 175 b 239 511 372 175 239 310 z m 572 0 l 1307 0 b 1815 513 1613 0 1815 207 b 1307 1022 1815 817 1613 1022 l 572 1022 b 64 513 267 1022 64 817 b 572 0 64 207 267 0 z "},"P":{"ha":1907,"x_min":0,"x_max":0,"o":"m 286 846 l 1500 846 b 1688 722 1613 846 1688 801 b 1500 599 1688 643 1613 599 l 286 599 z m 111 0 l 286 0 l 286 424 l 1500 424 b 1863 725 1718 424 1863 543 b 1500 1022 1863 908 1718 1022 l 111 1022 z "},"Q":{"ha":1881,"x_min":0,"x_max":0,"o":"m 239 511 b 572 846 239 713 372 846 l 1307 846 b 1640 511 1507 846 1640 713 b 1483 219 1640 376 1582 275 l 1296 460 l 1160 350 l 1296 175 l 572 175 b 239 511 372 175 239 310 z m 572 0 l 1307 0 b 1424 10 1349 0 1388 3 l 1646 -275 l 1782 -164 l 1594 78 b 1815 513 1733 164 1815 318 b 1307 1022 1815 817 1613 1022 l 572 1022 b 64 513 267 1022 64 817 b 572 0 64 207 267 0 z "},"R":{"ha":1956,"x_min":0,"x_max":0,"o":"m 286 599 l 286 846 l 1500 846 b 1688 722 1613 846 1688 801 b 1500 599 1688 643 1613 599 z m 1863 303 b 1771 513 1863 390 1829 461 b 1863 725 1829 565 1863 638 b 1500 1022 1863 908 1718 1022 l 111 1022 l 111 0 l 286 0 l 286 424 l 1500 424 b 1688 299 1613 424 1688 378 l 1688 0 l 1863 0 z "},"S":{"ha":1899,"x_min":0,"x_max":0,"o":"m 74 725 b 436 424 74 543 218 424 l 1463 424 b 1650 299 1575 424 1650 378 b 1463 175 1650 221 1575 175 l 74 175 l 74 0 l 1463 0 b 1825 303 1681 0 1825 119 b 1463 599 1825 485 1681 599 l 436 599 b 249 722 324 599 249 643 b 436 846 249 801 324 846 l 1825 846 l 1825 1022 l 436 1022 b 74 725 218 1022 74 908 z "},"T":{"ha":1799,"x_min":0,"x_max":0,"o":"m 799 0 l 974 0 l 974 846 l 1775 846 l 1775 1022 l 24 1022 l 24 846 l 799 846 z "},"U":{"ha":1926,"x_min":0,"x_max":0,"o":"m 1839 1022 l 1664 1022 l 1664 511 b 1331 175 1664 310 1531 175 l 596 175 b 263 511 396 175 263 310 l 263 1022 l 88 1022 l 88 513 b 596 0 88 207 290 0 l 1331 0 b 1839 513 1636 0 1839 207 z "},"V":{"ha":1768,"x_min":0,"x_max":0,"o":"m 775 1 l 775 0 l 994 0 l 993 1 l 1760 1022 l 1540 1022 l 883 147 l 228 1022 l 8 1022 z "},"W":{"ha":2782,"x_min":0,"x_max":0,"o":"m 668 1 l 667 0 l 842 0 l 1390 842 l 1939 0 l 2114 0 l 2753 1022 l 2547 1022 l 2026 188 l 1481 1022 l 1300 1022 l 757 189 l 235 1022 l 29 1022 z "},"X":{"ha":1790,"x_min":0,"x_max":0,"o":"m 1771 1022 l 1467 1022 l 894 618 l 324 1022 l 19 1022 l 743 511 l 19 0 l 325 0 l 894 403 l 1467 0 l 1771 0 l 1047 511 z "},"Y":{"ha":1751,"x_min":0,"x_max":0,"o":"m 781 467 l 781 0 l 956 0 l 956 468 l 957 467 l 1751 1022 l 1444 1022 l 869 619 l 304 1022 l 0 1022 z "},"Z":{"ha":1865,"x_min":0,"x_max":0,"o":"m 1808 828 l 1808 1022 l 57 1022 l 57 846 l 1438 846 l 57 193 l 57 -1 l 60 0 l 1808 0 l 1808 175 l 431 175 z "},"[":{"ha":399,"x_min":0,"x_max":0,"o":"m 111 -540 l 524 -540 l 524 -394 l 286 -394 l 286 1051 l 524 1051 l 524 1197 l 111 1197 z "},"\\":{"ha":711,"x_min":0,"x_max":0,"o":"m 261 1022 l 74 1022 l 449 0 l 636 0 z "},"]":{"ha":399,"x_min":0,"x_max":0,"o":"m 286 1197 l -126 1197 l -126 1051 l 111 1051 l 111 -394 l -126 -394 l -126 -540 l 286 -540 z "},"^":{"ha":836,"x_min":0,"x_max":0,"o":"m 332 1022 l 71 457 l 263 457 l 417 786 l 571 457 l 764 457 l 501 1022 z "},"_":{"ha":1857,"x_min":0,"x_max":0,"o":"m 1746 -324 l 1746 -178 l 111 -178 l 111 -324 z "},"`":{"ha":350,"x_min":0,"x_max":0,"o":"m 182 846 l 285 846 l 176 1108 l 1 1108 z "},"a":{"ha":1329,"x_min":0,"x_max":0,"o":"m 1061 175 l 400 175 b 242 233 288 175 242 192 b 400 292 242 276 288 292 l 901 292 b 1061 313 963 292 1015 299 z m 901 758 l 111 758 l 111 583 l 901 583 b 1060 525 1014 583 1060 568 b 901 467 1060 483 1014 467 l 400 467 b 67 236 182 467 67 382 b 400 0 67 90 182 0 l 1236 0 l 1236 525 l 1235 525 b 901 758 1235 714 1058 758 z "},"b":{"ha":1336,"x_min":0,"x_max":0,"o":"m 276 582 l 907 582 b 1094 375 1019 582 1094 500 b 907 175 1094 250 1019 175 l 276 175 z m 101 0 l 907 0 b 1269 376 1125 0 1269 146 b 907 757 1269 607 1125 757 l 276 757 l 276 1022 l 101 1022 z "},"c":{"ha":1301,"x_min":0,"x_max":0,"o":"m 67 376 b 429 0 67 146 211 0 l 1235 0 l 1235 175 l 429 175 b 242 375 317 175 242 250 b 429 582 242 500 317 582 l 1235 582 l 1235 757 l 429 757 b 67 376 211 757 67 607 z "},"d":{"ha":1336,"x_min":0,"x_max":0,"o":"m 428 175 b 242 375 317 175 242 250 b 428 582 242 500 317 582 l 1058 582 l 1058 175 z m 1235 1022 l 1060 1022 l 1060 757 l 429 757 b 67 376 211 757 67 607 b 429 0 67 146 211 0 l 1235 0 z "},"e":{"ha":1314,"x_min":0,"x_max":0,"o":"m 257 465 b 429 582 285 539 346 582 l 872 582 b 1044 465 960 582 1028 536 z m 67 376 b 429 0 67 146 211 0 l 1235 0 l 1235 175 l 429 175 b 257 290 346 175 283 218 l 1233 290 l 1233 376 b 872 757 1233 606 1089 757 l 429 757 b 67 376 211 757 67 607 z "},"f":{"ha":971,"x_min":0,"x_max":0,"o":"m 181 0 l 356 0 l 356 424 l 924 424 l 924 599 l 356 599 l 356 638 b 542 844 356 764 429 844 l 1347 844 l 1347 1021 l 542 1021 b 181 642 326 1021 181 871 l 181 599 l 49 599 l 49 424 l 181 424 z "},"g":{"ha":1336,"x_min":0,"x_max":0,"o":"m 1060 236 b 901 175 1060 200 996 175 l 429 175 b 242 375 317 175 242 250 b 429 582 242 500 317 582 l 1060 582 z m 67 376 b 429 0 67 146 211 0 l 901 0 b 1060 24 960 0 1014 8 l 1060 19 b 872 -189 1060 -107 985 -189 l 67 -189 l 67 -364 l 872 -364 b 1235 15 1089 -364 1235 -214 l 1235 757 l 429 757 b 67 376 211 757 67 607 z "},"h":{"ha":1347,"x_min":0,"x_max":0,"o":"m 1269 335 b 761 758 1269 590 1067 758 l 278 758 l 278 1018 l 103 1018 l 103 758 l 101 758 l 101 0 l 278 0 l 278 583 l 761 583 b 1094 336 960 583 1094 483 l 1094 0 l 1269 0 z "},"i":{"ha":379,"x_min":0,"x_max":0,"o":"m 101 0 l 276 0 l 276 758 l 101 758 z m 101 846 l 276 846 l 276 1022 l 101 1022 z "},"j":{"ha":378,"x_min":0,"x_max":0,"o":"m 276 756 l 101 756 l 101 18 b -86 -190 101 -108 26 -190 l -86 -365 b 276 13 131 -365 276 -217 z m 101 1022 l 101 846 l 276 846 l 276 1022 z "},"k":{"ha":1326,"x_min":0,"x_max":0,"o":"m 101 0 l 276 0 l 276 251 l 463 113 b 822 0 551 44 696 0 l 1271 0 l 1271 131 l 894 131 b 533 242 767 131 622 175 l 350 379 l 533 517 b 894 629 622 583 767 629 l 1271 629 l 1271 758 l 822 758 b 463 649 696 758 551 715 l 276 511 l 276 1022 l 101 1022 z "},"l":{"ha":379,"x_min":0,"x_max":0,"o":"m 276 0 l 276 1022 l 101 1022 l 101 0 z "},"m":{"ha":2336,"x_min":0,"x_max":0,"o":"m 2257 335 b 1749 758 2257 590 2054 758 l 1597 758 b 1181 593 1414 758 1268 697 b 761 758 1093 697 944 758 l 101 758 l 101 0 l 276 0 l 276 583 l 761 583 b 1090 372 943 583 1071 499 b 1089 335 1089 361 1089 347 l 1089 0 l 1269 0 l 1269 335 b 1268 372 1269 347 1269 361 b 1597 583 1288 497 1415 583 l 1749 583 b 2082 336 1947 583 2082 483 l 2082 0 l 2257 0 z "},"n":{"ha":1347,"x_min":0,"x_max":0,"o":"m 1269 335 b 761 758 1269 590 1067 758 l 101 758 l 101 0 l 276 0 l 276 583 l 761 583 b 1094 336 960 583 1094 483 l 1094 0 l 1269 0 z "},"o":{"ha":1301,"x_min":0,"x_max":0,"o":"m 242 375 b 429 582 242 500 317 582 l 872 582 b 1060 375 985 582 1060 500 b 872 175 1060 250 985 175 l 429 175 b 242 375 317 175 242 250 z m 429 0 l 872 0 b 1235 376 1090 0 1235 146 b 872 757 1235 607 1090 757 l 429 757 b 67 376 211 757 67 607 b 429 0 67 146 211 0 z "},"p":{"ha":1336,"x_min":0,"x_max":0,"o":"m 276 175 l 276 582 l 907 582 b 1094 375 1019 582 1094 500 b 907 175 1094 250 1019 175 z m 1269 376 b 907 757 1269 607 1125 757 l 101 757 l 101 -365 l 276 -365 l 276 0 l 907 0 b 1269 376 1125 0 1269 146 z "},"q":{"ha":1336,"x_min":0,"x_max":0,"o":"m 1060 175 l 429 175 b 242 375 317 175 242 250 b 429 582 242 500 317 582 l 1060 582 z m 67 376 b 429 0 67 146 211 0 l 1060 0 l 1060 -365 l 1235 -365 l 1235 757 l 429 757 b 67 376 211 757 67 607 z "},"r":{"ha":624,"x_min":0,"x_max":0,"o":"m 586 758 b 78 335 281 758 78 590 l 78 0 l 253 0 l 253 336 b 586 583 253 481 386 583 z "},"s":{"ha":1313,"x_min":0,"x_max":0,"o":"m 78 528 b 411 292 78 382 193 292 l 913 292 b 1071 233 1025 292 1071 276 b 913 175 1071 192 1025 175 l 78 175 l 78 0 l 913 0 b 1246 236 1131 0 1246 90 b 913 467 1246 382 1131 467 l 411 467 b 253 525 299 467 253 483 b 411 583 253 568 299 583 l 1201 583 l 1201 758 l 411 758 b 78 528 193 758 78 674 z "},"t":{"ha":604,"x_min":0,"x_max":0,"o":"m 39 583 l 175 583 l 175 378 b 536 0 175 149 321 0 l 536 175 b 350 382 424 175 350 257 l 350 583 l 535 583 l 535 758 l 350 758 l 350 1018 l 175 1018 l 175 758 l 39 758 z "},"u":{"ha":1321,"x_min":0,"x_max":0,"o":"m 1244 758 l 1069 758 l 1069 424 b 736 175 1069 276 935 175 l 585 175 b 251 424 385 175 251 279 l 251 758 l 76 758 l 76 425 b 585 0 76 169 279 0 l 736 0 b 1244 425 1042 0 1244 169 z "},"v":{"ha":1225,"x_min":0,"x_max":0,"o":"m 510 0 l 719 0 l 1203 758 l 996 758 l 615 163 l 226 758 l 21 758 z "},"w":{"ha":1439,"x_min":0,"x_max":0,"o":"m 328 0 l 519 0 l 719 518 l 924 0 l 1115 0 l 1408 758 l 1222 758 l 1021 239 l 813 757 l 813 758 l 625 758 l 626 757 l 425 239 l 217 758 l 29 758 z "},"x":{"ha":1438,"x_min":0,"x_max":0,"o":"m 1414 758 l 1110 758 l 718 483 l 328 758 l 24 758 l 567 376 l 33 0 l 339 0 l 718 268 l 1099 0 l 1403 0 l 871 375 z "},"y":{"ha":1347,"x_min":0,"x_max":0,"o":"m 1246 657 l 1244 657 l 1244 758 l 1069 758 l 1069 424 b 736 175 1069 276 935 175 l 585 175 b 251 424 385 175 251 279 l 251 758 l 76 758 l 76 425 b 585 0 76 169 279 0 l 736 0 b 1071 90 871 0 985 32 l 1071 19 b 883 -189 1071 -107 996 -189 l 78 -189 l 78 -364 l 883 -364 b 1246 15 1100 -364 1246 -214 z "},"z":{"ha":1338,"x_min":0,"x_max":0,"o":"m 1267 565 l 1267 758 l 69 758 l 69 583 l 896 583 l 69 193 l 69 -1 l 72 0 l 1267 0 l 1267 175 l 443 175 z "},"{":{"ha":526,"x_min":0,"x_max":0,"o":"m 90 281 b 211 208 164 281 211 251 l 211 -265 b 536 -543 211 -437 365 -543 l 536 -397 b 386 -278 446 -397 386 -349 l 386 153 b 269 353 386 242 342 324 b 386 551 340 376 386 458 l 386 931 b 536 1053 386 1004 446 1053 l 536 1199 b 211 921 342 1199 211 1088 l 211 497 b 90 426 211 456 164 426 z "},"|":{"ha":399,"x_min":0,"x_max":0,"o":"m 286 -365 l 286 1022 l 111 1022 l 111 -365 z "},"}":{"ha":526,"x_min":0,"x_max":0,"o":"m 436 426 b 314 497 363 426 314 456 l 314 921 b -10 1199 314 1088 185 1199 l -10 1053 b 139 931 79 1053 139 1004 l 139 551 b 256 353 139 458 186 376 b 139 153 185 324 139 242 l 139 -278 b -10 -397 139 -349 79 -397 l -10 -543 b 314 -265 161 -543 314 -437 l 314 208 b 436 281 314 251 363 281 z "},"~":{"ha":1011,"x_min":0,"x_max":0,"o":"m 253 413 b 344 547 253 493 289 547 b 692 413 432 547 547 413 b 933 740 835 413 933 544 l 758 740 b 665 606 758 660 721 606 b 317 740 578 606 463 740 b 78 413 174 740 78 608 z "}," ":{"ha":796,"x_min":0,"x_max":0,"o":""},"¡":{"ha":363,"x_min":0,"x_max":0,"o":"m 93 0 l 93 -292 l 268 -292 l 268 -1 l 204 438 l 160 438 z m 268 554 l 268 729 l 93 729 l 93 554 z "},"¢":{"ha":1444,"x_min":0,"x_max":0,"o":"m 408 179 b 268 375 322 197 268 267 b 456 582 268 500 343 582 l 772 582 z m 31 -240 l 153 -367 l 483 0 l 1261 0 l 1261 175 l 640 175 l 1007 582 l 1261 582 l 1261 757 l 1164 757 l 1358 974 l 1228 1089 l 929 757 l 456 757 b 93 376 238 757 93 607 b 282 38 93 214 165 94 z "},"£":{"ha":1642,"x_min":0,"x_max":0,"o":"m 383 349 b 118 175 383 246 276 175 l 93 175 l 93 0 l 1549 0 l 1549 175 l 383 175 b 556 379 488 194 556 276 l 556 442 l 860 442 l 860 618 l 556 618 l 556 703 b 672 846 556 789 601 846 l 1549 846 l 1549 1022 l 651 1022 b 383 686 492 1022 383 888 l 383 618 l 128 618 l 128 442 l 383 442 z "},"¤":{"ha":1163,"x_min":0,"x_max":0,"o":"m 389 513 b 576 699 389 625 463 699 b 764 513 689 699 764 625 b 576 324 764 399 689 324 b 389 513 463 324 389 399 z m 243 513 b 314 292 243 424 268 349 l 81 0 l 268 0 l 432 204 b 576 178 475 188 522 178 b 731 208 633 178 686 189 l 896 0 l 1083 0 l 844 300 b 910 513 886 356 910 428 b 846 722 910 596 886 667 l 1083 1022 l 896 1022 l 732 813 b 576 844 686 833 633 844 b 431 817 522 844 474 835 l 268 1022 l 81 1022 l 313 729 b 243 513 268 674 243 600 z "},"¥":{"ha":1849,"x_min":0,"x_max":0,"o":"m 458 346 l 458 200 l 829 200 l 829 0 l 1004 0 l 1004 200 l 1394 200 l 1394 346 l 1004 346 l 1004 411 l 1394 411 l 1394 557 l 1136 557 l 1800 1022 l 1493 1022 l 918 619 l 353 1022 l 49 1022 l 703 557 l 458 557 l 458 411 l 829 411 l 829 346 z "},"¦":{"ha":379,"x_min":0,"x_max":0,"o":"m 101 489 l 276 489 l 276 1022 l 101 1022 z m 101 -365 l 276 -365 l 276 168 l 101 168 z "},"§":{"ha":1368,"x_min":0,"x_max":0,"o":"m 101 792 b 435 554 101 644 217 554 l 936 554 b 1094 496 1049 554 1094 539 b 936 438 1094 454 1049 438 l 435 438 b 101 207 217 438 101 353 b 435 -29 101 61 217 -29 l 936 -29 b 1094 -87 1049 -29 1094 -46 b 936 -146 1094 -131 1049 -146 l 101 -146 l 101 -321 l 936 -321 b 1269 -85 1154 -321 1269 -231 b 936 146 1269 61 1154 146 l 435 146 b 276 204 322 146 276 163 b 435 263 276 247 322 263 l 936 263 b 1269 499 1154 263 1269 353 b 936 729 1269 644 1154 729 l 435 729 b 276 788 322 729 276 746 b 435 846 276 831 322 846 l 1225 846 l 1225 1022 l 435 1022 b 101 792 217 1022 101 938 z "},"¨":{"ha":610,"x_min":0,"x_max":0,"o":"m 363 1022 l 363 846 l 538 846 l 538 1022 z m 71 1022 l 71 846 l 246 846 l 246 1022 z "},"©":{"ha":1365,"x_min":0,"x_max":0,"o":"m 282 513 b 504 288 282 378 372 288 l 1049 288 l 1049 365 l 504 365 b 360 513 417 365 360 424 b 504 658 360 600 417 658 l 1049 658 l 1049 735 l 504 735 b 282 513 372 735 282 644 z m 160 514 b 681 1032 160 824 368 1032 b 1206 511 993 1032 1206 824 b 683 -11 1206 200 996 -11 b 160 514 372 -11 160 200 z m 99 514 b 683 -75 99 163 335 -75 b 1267 511 1033 -75 1267 163 b 681 1094 1267 861 1029 1094 b 99 514 332 1094 99 861 z "},"ª":{"ha":729,"x_min":0,"x_max":0,"o":"m 85 529 l 640 529 l 640 592 l 85 592 z m 242 747 b 168 775 190 747 168 754 b 242 801 168 794 190 801 l 481 801 b 553 811 508 801 533 806 l 553 747 z m 481 1022 l 107 1022 l 107 940 l 481 940 b 553 913 533 940 553 932 b 481 885 553 892 533 885 l 242 885 b 86 776 140 885 86 844 b 242 664 86 707 140 664 l 636 664 l 636 914 b 481 1022 636 982 582 1022 z "},"«":{"ha":960,"x_min":0,"x_max":0,"o":"m 385 407 l 663 46 l 882 46 l 604 407 l 882 772 l 663 772 z m 78 407 l 357 46 l 575 46 l 299 407 l 575 772 l 357 772 z "},"¬":{"ha":914,"x_min":0,"x_max":0,"o":"m 78 574 l 78 400 l 651 400 l 651 206 l 826 206 l 826 575 z "},"­":{"ha":0,"x_min":0,"x_max":0,"o":""},"®":{"ha":1365,"x_min":0,"x_max":0,"o":"m 426 551 l 426 644 l 885 644 b 956 599 928 644 956 628 b 885 551 956 568 928 551 z m 1021 439 b 988 518 1021 472 1010 499 b 1021 599 1010 539 1021 567 b 885 711 1021 668 967 711 l 361 711 l 361 325 l 426 325 l 426 485 l 885 485 b 956 438 928 485 956 468 l 956 325 l 1021 325 z m 160 515 b 681 1033 160 825 368 1033 b 1206 513 993 1033 1206 825 b 683 -10 1206 201 996 -10 b 160 515 372 -10 160 201 z m 99 515 b 683 -74 99 164 335 -74 b 1267 513 1033 -74 1267 164 b 681 1096 1267 863 1029 1096 b 99 515 332 1096 99 863 z "},"¯":{"ha":889,"x_min":0,"x_max":0,"o":"m 824 907 l 824 1053 l 64 1053 l 64 907 z "},"°":{"ha":529,"x_min":0,"x_max":0,"o":"m 143 856 b 264 982 143 931 192 982 b 385 856 338 982 385 931 b 264 726 385 778 338 726 b 143 856 192 726 143 778 z m 82 856 b 264 661 82 738 156 661 b 447 856 374 661 447 738 b 264 1050 447 972 374 1050 b 82 856 156 1050 82 972 z "},"±":{"ha":1176,"x_min":0,"x_max":0,"o":"m 96 175 l 96 0 l 1079 0 l 1079 175 z m 500 208 l 675 208 l 675 467 l 1079 467 l 1079 642 l 675 642 l 675 900 l 500 900 l 500 642 l 96 642 l 96 467 l 500 467 z "},"²":{"ha":1022,"x_min":0,"x_max":0,"o":"m 89 528 l 933 528 l 933 613 l 174 613 l 174 672 b 264 733 174 711 210 733 l 758 733 b 933 879 864 733 933 789 b 758 1022 933 967 864 1022 l 89 1022 l 89 938 l 758 938 b 849 878 813 938 849 915 b 758 817 849 839 813 817 l 264 817 b 89 674 158 817 89 763 z "},"³":{"ha":1019,"x_min":0,"x_max":0,"o":"m 929 685 b 886 783 929 725 914 758 b 929 883 914 807 929 842 b 754 1022 929 969 860 1022 l 85 1022 l 85 940 l 754 940 b 844 882 808 940 844 918 b 754 824 844 844 808 824 l 154 824 l 154 742 l 754 742 b 844 683 808 742 844 719 b 754 625 844 647 808 625 l 85 625 l 85 543 l 754 543 b 929 685 860 543 929 599 z "},"´":{"ha":350,"x_min":0,"x_max":0,"o":"m 349 1108 l 174 1108 l 65 846 l 168 846 z "},"¶":{"ha":1169,"x_min":0,"x_max":0,"o":"m 797 -365 l 972 -365 l 972 849 l 1075 849 l 1075 1024 l 478 1024 b 92 668 246 1024 92 875 b 478 318 92 460 246 318 l 478 -365 l 654 -365 l 654 849 l 797 849 z "},"·":{"ha":318,"x_min":0,"x_max":0,"o":"m 246 424 l 246 599 l 71 599 l 71 424 z "},"¸":{"ha":243,"x_min":0,"x_max":0,"o":"m 306 -169 b 183 17 306 -106 256 -31 l 29 17 b 151 -110 103 -28 151 -79 b -37 -174 151 -149 75 -174 l -37 -349 b 306 -169 168 -349 306 -278 z "},"¹":{"ha":363,"x_min":0,"x_max":0,"o":"m 186 528 l 271 528 l 271 1022 l 186 1022 b 81 944 186 975 143 944 l 81 860 b 186 882 119 860 157 867 z "},"º":{"ha":835,"x_min":0,"x_max":0,"o":"m 85 504 l 729 504 l 729 567 l 85 567 z m 282 706 b 158 831 207 706 158 754 b 282 956 158 907 207 956 l 557 956 b 682 831 632 956 682 907 b 557 706 682 754 632 706 z m 92 831 b 282 639 92 717 168 639 l 557 639 b 747 831 671 639 747 717 b 557 1022 747 946 671 1022 l 282 1022 b 92 831 168 1022 92 946 z "},"»":{"ha":960,"x_min":0,"x_max":0,"o":"m 296 772 l 76 772 l 354 407 l 76 46 l 296 46 l 574 407 z m 601 772 l 383 772 l 660 407 l 383 46 l 601 46 l 881 407 z "},"¼":{"ha":1706,"x_min":0,"x_max":0,"o":"m 1528 3 l 1610 3 l 1610 482 l 1528 482 l 1528 229 l 871 229 l 871 482 l 790 482 l 790 146 l 1528 146 z m 188 528 l 272 528 l 272 1022 l 188 1022 b 82 944 188 975 144 944 l 82 860 b 188 882 121 860 158 867 z m 281 -1 l 371 -1 l 865 1022 l 775 1022 z "},"½":{"ha":1761,"x_min":0,"x_max":0,"o":"m 825 3 l 1669 3 l 1669 88 l 910 88 l 910 147 b 1000 207 910 185 946 207 l 1494 207 b 1669 353 1600 207 1669 264 b 1494 496 1669 440 1600 496 l 825 496 l 825 411 l 1494 411 b 1585 351 1549 411 1585 390 b 1494 292 1585 314 1549 292 l 1000 292 b 825 149 894 292 825 236 z m 188 528 l 272 528 l 272 1022 l 188 1022 b 82 944 188 975 144 944 l 82 860 b 188 882 121 860 158 867 z m 281 -1 l 371 -1 l 865 1022 l 775 1022 z "},"¾":{"ha":2318,"x_min":0,"x_max":0,"o":"m 2140 3 l 2222 3 l 2222 482 l 2140 482 l 2140 229 l 1485 229 l 1485 482 l 1403 482 l 1403 146 l 2140 146 z m 933 685 b 890 783 933 725 918 758 b 933 883 918 807 933 842 b 758 1022 933 969 864 1022 l 89 1022 l 89 940 l 758 940 b 849 882 813 940 849 918 b 758 824 849 844 813 824 l 158 824 l 158 742 l 758 742 b 849 683 813 742 849 719 b 758 625 849 647 813 625 l 89 625 l 89 543 l 758 543 b 933 685 864 543 933 599 z m 893 -1 l 983 -1 l 1478 1022 l 1388 1022 z "},"¿":{"ha":1350,"x_min":0,"x_max":0,"o":"m 1257 453 l 1082 453 l 1082 431 b 896 307 1082 351 1007 307 l 438 307 b 75 4 219 307 75 188 b 438 -292 75 -178 219 -292 l 1826 -292 l 1826 -117 l 438 -117 b 250 7 325 -117 250 -71 b 438 132 250 86 325 132 l 896 132 b 1257 428 1113 132 1257 246 z m 1261 554 l 1261 729 l 1086 729 l 1086 554 z "},"Æ":{"ha":2799,"x_min":0,"x_max":0,"o":"m 988 1008 l 988 467 l 581 467 z m 11 0 l 231 0 l 449 292 l 988 292 l 988 0 l 2739 0 l 2739 175 l 1163 175 l 1163 424 l 2593 424 l 2593 599 l 1163 599 l 1163 846 l 2739 846 l 2739 1022 l 779 1022 z "},"Ð":{"ha":1978,"x_min":0,"x_max":0,"o":"m 338 429 l 440 429 l 440 604 l 338 604 l 338 846 l 1406 846 b 1739 511 1606 846 1739 713 b 1406 175 1739 310 1606 175 l 338 175 z m 163 604 l 56 604 l 56 429 l 163 429 l 163 0 l 1406 0 b 1914 513 1711 0 1914 207 b 1406 1022 1914 817 1711 1022 l 163 1022 z "},"×":{"ha":786,"x_min":0,"x_max":0,"o":"m 208 817 l 86 693 l 269 511 l 86 326 l 210 204 l 393 386 l 575 204 l 699 326 l 517 511 l 699 693 l 576 817 l 393 633 z "},"Ø":{"ha":1879,"x_min":0,"x_max":0,"o":"m 440 197 l 1593 696 b 1640 511 1624 644 1640 582 b 1307 175 1640 310 1507 175 l 572 175 b 440 197 524 175 479 182 z m 289 321 b 239 511 257 374 239 438 b 572 846 239 713 372 846 l 1307 846 b 1442 824 1357 846 1401 839 z m 572 0 l 1307 0 b 1815 513 1613 0 1815 207 b 1307 1022 1815 817 1613 1022 l 572 1022 b 64 513 267 1022 64 817 b 572 0 64 207 267 0 z "},"Þ":{"ha":1908,"x_min":0,"x_max":0,"o":"m 286 635 l 1500 635 b 1688 511 1613 635 1688 590 b 1500 386 1688 432 1613 386 l 286 386 z m 111 0 l 286 0 l 286 211 l 1500 211 b 1863 514 1718 211 1863 332 b 1500 810 1863 696 1718 810 l 286 810 l 286 1022 l 111 1022 z "},"ß":{"ha":1931,"x_min":0,"x_max":0,"o":"m 450 1022 b 101 717 242 1022 101 899 l 101 0 l 276 0 l 276 717 b 450 846 276 794 347 846 l 1490 846 b 1678 717 1603 846 1678 796 b 1490 599 1678 638 1603 599 l 438 599 l 438 424 l 1490 424 b 1678 299 1603 424 1678 378 b 1490 175 1678 221 1603 175 l 790 175 b 603 299 678 175 603 221 l 428 299 b 790 0 428 117 572 0 l 1490 0 b 1853 303 1708 0 1853 119 b 1761 513 1853 390 1819 461 b 1853 725 1819 565 1853 638 b 1490 1022 1853 908 1708 1022 z "},"æ":{"ha":2294,"x_min":0,"x_max":0,"o":"m 400 175 b 242 233 288 175 242 192 b 400 292 242 276 288 292 l 901 292 b 1051 310 958 292 1010 297 b 1094 175 1060 260 1074 214 z m 1238 465 b 1410 582 1265 539 1326 582 l 1853 582 b 2025 465 1940 582 2010 536 z m 901 583 b 1060 525 1014 583 1060 568 b 901 467 1060 483 1014 467 l 400 467 b 67 236 182 467 67 382 b 400 0 67 90 182 0 l 1235 0 l 1235 38 b 1410 0 1285 13 1343 0 l 2215 0 l 2215 175 l 1410 175 b 1238 290 1326 175 1264 218 l 2214 290 l 2214 376 b 1853 757 2214 606 2069 757 l 1410 757 b 1175 679 1314 757 1236 729 b 901 758 1119 731 1026 758 l 111 758 l 111 583 z "},"ð":{"ha":1896,"x_min":0,"x_max":0,"o":"m 1633 299 b 1446 175 1633 221 1558 175 l 419 175 b 232 299 307 175 232 221 b 419 424 232 378 307 424 l 1444 424 b 1633 299 1557 424 1633 378 z m 419 0 l 1446 0 b 1808 303 1664 0 1808 119 l 1808 725 b 1551 1011 1808 878 1710 981 l 1733 1154 l 1626 1292 l 1282 1022 l 57 1022 l 57 846 l 1057 846 l 960 771 l 1068 633 l 1340 846 l 1446 846 b 1633 722 1558 846 1633 801 l 1633 563 b 1444 599 1581 585 1517 599 l 419 599 b 57 299 201 599 57 482 b 419 0 57 117 201 0 z "},"÷":{"ha":1200,"x_min":0,"x_max":0,"o":"m 508 175 l 508 0 l 685 0 l 685 175 z m 71 590 l 71 414 l 1129 414 l 1129 590 z m 508 1022 l 508 846 l 685 846 l 685 1022 z "},"ø":{"ha":1301,"x_min":0,"x_max":0,"o":"m 503 175 l 1035 488 b 1060 375 1050 457 1060 419 b 872 175 1060 250 985 175 z m 278 247 b 242 375 256 281 242 322 b 429 582 242 500 317 582 l 850 582 z m 67 376 b 429 0 67 146 211 0 l 872 0 b 1235 376 1090 0 1235 146 b 872 757 1235 607 1090 757 l 429 757 b 67 376 211 757 67 607 z "},"þ":{"ha":1338,"x_min":0,"x_max":0,"o":"m 276 582 l 908 582 b 1096 375 1021 582 1096 500 b 908 175 1096 250 1021 175 l 276 175 z m 101 -365 l 276 -365 l 276 0 l 908 0 b 1271 376 1126 0 1271 146 b 908 757 1271 607 1126 757 l 276 757 l 276 1022 l 101 1022 z "},"đ":{"ha":1336,"x_min":0,"x_max":0,"o":"m 428 175 b 242 375 317 175 242 250 b 428 582 242 500 317 582 l 1058 582 l 1058 175 z m 1235 833 l 1482 833 l 1482 979 l 1235 979 l 1235 1022 l 1060 1022 l 1060 979 l 722 979 l 722 833 l 1060 833 l 1060 757 l 429 757 b 67 376 211 757 67 607 b 429 0 67 146 211 0 l 1235 0 z "},"Ł":{"ha":2010,"x_min":0,"x_max":0,"o":"m 232 0 l 1985 0 l 1985 175 l 407 175 l 407 428 l 686 572 l 686 738 l 407 593 l 407 1022 l 232 1022 l 232 501 l 36 401 l 36 236 l 232 338 z "},"ł":{"ha":736,"x_min":0,"x_max":0,"o":"m 242 0 l 417 0 l 417 428 l 696 572 l 696 738 l 417 593 l 417 1022 l 242 1022 l 242 501 l 46 401 l 46 236 l 242 338 z "},"Œ":{"ha":3451,"x_min":0,"x_max":0,"o":"m 239 511 b 572 846 239 713 372 846 l 1307 846 b 1640 511 1507 846 1640 713 b 1307 175 1640 310 1507 175 l 572 175 b 239 511 372 175 239 310 z m 572 0 l 1307 0 b 1640 110 1440 0 1554 39 l 1640 0 l 3392 0 l 3392 175 l 1815 175 l 1815 424 l 3246 424 l 3246 599 l 1815 599 l 1815 846 l 3392 846 l 3392 1022 l 1640 1022 l 1640 914 b 1307 1022 1554 982 1440 1022 l 572 1022 b 64 513 267 1022 64 817 b 572 0 64 207 267 0 z "},"œ":{"ha":2307,"x_min":0,"x_max":0,"o":"m 1249 465 b 1421 582 1276 539 1338 582 l 1865 582 b 2038 465 1953 582 2021 536 z m 429 175 b 242 375 317 175 242 250 b 429 582 242 500 317 582 l 872 582 b 1060 375 985 582 1060 500 b 872 175 1060 250 985 175 z m 67 376 b 429 0 67 146 211 0 l 872 0 b 1147 115 988 0 1082 42 b 1421 0 1211 42 1306 0 l 2226 0 l 2226 175 l 1421 175 b 1249 290 1338 175 1275 218 l 2225 290 l 2225 376 b 1865 757 2225 606 2081 757 l 1421 757 b 1147 640 1306 757 1211 715 b 872 757 1082 715 988 757 l 429 757 b 67 376 211 757 67 607 z "},"ƒ":{"ha":1019,"x_min":0,"x_max":0,"o":"m -1010 -364 l -204 -364 b 258 15 13 -364 197 -214 l 365 424 l 933 424 l 981 599 l 410 599 l 421 638 b 660 844 456 764 547 844 l 1465 844 l 1514 1021 l 708 1021 b 246 642 492 1021 307 871 l 233 599 l 106 599 l 57 424 l 189 424 l 83 19 b -160 -189 49 -107 -49 -189 l -965 -189 z "},"ˆ":{"ha":625,"x_min":0,"x_max":0,"o":"m 60 833 l 235 833 l 313 953 l 389 833 l 565 833 l 364 1093 l 261 1093 z "},"ˇ":{"ha":517,"x_min":0,"x_max":0,"o":"m 207 833 l 310 833 l 511 1093 l 335 1093 l 258 974 l 181 1093 l 6 1093 z "},"˘":{"ha":704,"x_min":0,"x_max":0,"o":"m 351 860 b 668 1140 539 860 668 972 l 493 1140 b 354 1035 493 1078 443 1035 b 213 1140 264 1035 213 1078 l 38 1140 b 351 860 38 972 163 860 z "},"˙":{"ha":318,"x_min":0,"x_max":0,"o":"m 246 832 l 246 1007 l 71 1007 l 71 832 z "},"˚":{"ha":415,"x_min":0,"x_max":0,"o":"m 146 999 b 207 1060 146 1032 174 1060 b 269 999 242 1060 269 1032 b 207 936 269 965 242 936 b 146 999 174 936 146 965 z m 68 999 b 207 860 68 921 131 860 b 347 999 285 860 347 921 b 207 1138 347 1074 285 1138 b 68 999 131 1138 68 1074 z "},"˛":{"ha":211,"x_min":0,"x_max":0,"o":"m -65 -176 b 231 -349 -65 -282 53 -349 l 231 -174 b 58 -112 128 -174 58 -149 b 181 15 58 -81 108 -29 l 57 15 b -65 -176 -15 -32 -65 -110 z "},"˜":{"ha":735,"x_min":0,"x_max":0,"o":"m 214 861 b 271 951 214 915 236 951 b 501 861 328 951 400 861 b 676 1096 606 861 676 954 l 531 1096 b 472 1001 531 1039 508 1001 b 240 1096 415 1001 344 1096 b 68 861 138 1096 68 1003 z "},"˝":{"ha":643,"x_min":0,"x_max":0,"o":"m 640 1108 l 465 1108 l 357 846 l 460 846 z m 349 1108 l 174 1108 l 65 846 l 168 846 z "},"μ":{"ha":1926,"x_min":0,"x_max":0,"o":"m 1854 1022 l 1679 1022 l 1679 511 b 1346 175 1679 310 1546 175 l 611 175 b 278 511 411 175 278 310 l 278 1022 l 103 1022 l 103 657 l 101 657 l 101 -365 l 276 -365 l 276 111 b 611 0 363 40 476 0 l 1346 0 b 1854 513 1651 0 1854 207 z "},"–":{"ha":1128,"x_min":0,"x_max":0,"o":"m 1056 197 l 1056 372 l 71 372 l 71 197 z "},"—":{"ha":1856,"x_min":0,"x_max":0,"o":"m 1785 190 l 1785 365 l 71 365 l 71 190 z "},"‘":{"ha":361,"x_min":0,"x_max":0,"o":"m 254 699 l 254 874 l 156 874 l 286 1022 l 225 1022 l 79 874 l 79 699 z "},"’":{"ha":364,"x_min":0,"x_max":0,"o":"m 108 1022 l 108 846 l 208 846 l 76 699 l 138 699 l 283 846 l 283 1022 z "},"‚":{"ha":318,"x_min":0,"x_max":0,"o":"m 71 175 l 71 0 l 171 0 l 39 -147 l 100 -147 l 246 0 l 246 175 z "},"‛":{"ha":364,"x_min":0,"x_max":0,"o":"m 79 1022 l 79 846 l 225 699 l 286 699 l 156 846 l 254 846 l 254 1022 z "},"“":{"ha":653,"x_min":0,"x_max":0,"o":"m 546 699 l 546 874 l 447 874 l 578 1022 l 517 1022 l 371 874 l 371 699 z m 254 699 l 254 874 l 156 874 l 286 1022 l 225 1022 l 79 874 l 79 699 z "},"”":{"ha":656,"x_min":0,"x_max":0,"o":"m 108 1022 l 108 846 l 208 846 l 76 699 l 138 699 l 283 846 l 283 1022 z m 400 1022 l 400 846 l 500 846 l 368 699 l 429 699 l 575 846 l 575 1022 z "},"„":{"ha":610,"x_min":0,"x_max":0,"o":"m 363 175 l 363 0 l 463 0 l 331 -147 l 392 -147 l 538 0 l 538 175 z m 71 175 l 71 0 l 171 0 l 39 -147 l 100 -147 l 246 0 l 246 175 z "},"†":{"ha":1244,"x_min":0,"x_max":0,"o":"m 535 -367 l 710 -367 l 710 658 l 1164 658 l 1164 804 l 710 804 l 710 1022 l 535 1022 l 535 804 l 81 804 l 81 658 l 535 658 z "},"‡":{"ha":1244,"x_min":0,"x_max":0,"o":"m 535 -3 l 81 -3 l 81 -149 l 535 -149 l 535 -367 l 710 -367 l 710 -149 l 1164 -149 l 1164 -3 l 710 -3 l 710 658 l 1164 658 l 1164 804 l 710 804 l 710 1022 l 535 1022 l 535 804 l 81 804 l 81 658 l 535 658 z "},"•":{"ha":806,"x_min":0,"x_max":0,"o":"m 90 510 b 404 199 90 321 214 199 b 715 510 590 199 715 321 b 404 824 715 699 590 824 b 90 510 214 824 90 699 z "},"…":{"ha":901,"x_min":0,"x_max":0,"o":"m 654 175 l 654 0 l 829 0 l 829 175 z m 363 175 l 363 0 l 538 0 l 538 175 z m 71 175 l 71 0 l 246 0 l 246 175 z "},"‰":{"ha":3510,"x_min":0,"x_max":0,"o":"m 2632 101 b 2528 290 2568 101 2528 176 b 2632 481 2528 404 2568 481 l 3214 481 b 3318 290 3278 481 3318 404 b 3214 101 3318 176 3278 101 z m 1582 101 b 1476 290 1518 101 1476 176 b 1582 481 1476 404 1518 481 l 2163 481 b 2268 290 2226 481 2268 404 b 2163 101 2268 176 2226 101 z m 2428 292 b 2632 1 2428 117 2510 1 l 3214 1 b 3418 292 3336 1 3418 117 b 3214 579 3418 464 3336 579 l 2632 579 b 2428 292 2510 579 2428 464 z m 1378 292 b 1582 1 1378 117 1460 1 l 2163 1 b 2367 292 2285 1 2367 117 b 2163 579 2367 464 2285 579 l 1582 579 b 1378 292 1460 579 1378 464 z m 296 543 b 190 733 232 543 190 619 b 296 922 190 846 232 922 l 876 922 b 982 733 942 922 982 846 b 876 543 982 619 942 543 z m 92 735 b 296 443 92 558 174 443 l 876 443 b 1081 735 1000 443 1081 558 b 876 1022 1081 907 1000 1022 l 296 1022 b 92 735 174 1022 92 907 z m 944 0 l 1053 0 l 1521 1022 l 1411 1022 z "},"‹":{"ha":653,"x_min":0,"x_max":0,"o":"m 78 407 l 357 46 l 575 46 l 299 407 l 575 772 l 357 772 z "},"›":{"ha":653,"x_min":0,"x_max":0,"o":"m 296 772 l 76 772 l 354 407 l 76 46 l 296 46 l 574 407 z "},"⁄":{"ha":828,"x_min":0,"x_max":0,"o":"m 71 0 l 267 0 l 760 1021 l 565 1021 z "},"€":{"ha":2119,"x_min":0,"x_max":0,"o":"m 1028 322 l 1028 468 l 450 468 b 449 511 449 482 449 496 b 450 553 449 525 449 540 l 1028 553 l 1028 699 l 497 699 b 782 846 553 792 654 846 l 2025 846 l 2025 1022 l 782 1022 b 303 699 544 1022 369 897 l 93 699 l 93 553 l 275 553 b 274 513 274 540 274 525 b 275 468 274 497 274 483 l 93 468 l 93 322 l 303 322 b 782 0 371 124 546 0 l 2025 0 l 2025 175 l 782 175 b 497 322 654 175 553 231 z "},"™":{"ha":1704,"x_min":0,"x_max":0,"o":"m 68 947 l 396 947 l 396 588 l 471 588 l 471 947 l 811 947 l 811 1022 l 68 1022 z m 872 588 l 947 588 l 947 924 l 1207 588 l 1282 588 l 1540 925 l 1540 588 l 1615 588 l 1615 1022 l 1522 1022 l 1244 660 l 965 1022 l 872 1022 z "},"−":{"ha":1126,"x_min":0,"x_max":0,"o":"m 1054 424 l 1054 599 l 71 599 l 71 424 z "},"":{"ha":1768,"x_min":0,"x_max":0,"o":"m 993 1022 l 994 1024 l 775 1024 l 775 1022 l 8 1 l 228 1 l 883 876 l 1540 1 l 1760 1 z "},"":{"ha":1933,"x_min":0,"x_max":0,"o":"m 274 176 l 274 425 l 1488 425 b 1675 301 1600 425 1675 379 b 1488 176 1675 222 1600 176 z m 1850 304 b 1758 514 1850 392 1817 463 b 1850 726 1817 567 1850 639 b 1488 1024 1850 910 1706 1024 l 99 1024 l 99 849 l 1488 849 b 1675 724 1600 849 1675 803 b 1488 600 1675 646 1600 600 l 99 600 l 99 1 l 1488 1 b 1850 304 1706 1 1850 121 z "},"":{"ha":1850,"x_min":0,"x_max":0,"o":"m 51 418 b 553 1 89 167 281 1 l 1796 1 l 1796 176 l 553 176 b 229 418 386 176 265 269 z m 226 593 b 553 849 257 749 381 849 l 1796 849 l 1796 1024 l 553 1024 b 49 593 275 1024 81 854 z "},"":{"ha":1868,"x_min":0,"x_max":0,"o":"m 1804 514 b 1296 1024 1804 819 1601 1024 l 53 1024 l 53 849 l 1296 849 b 1629 513 1496 849 1629 714 b 1296 176 1629 311 1496 176 l 53 176 l 53 1 l 1296 1 b 1804 514 1601 1 1804 208 z "},"":{"ha":1847,"x_min":0,"x_max":0,"o":"m 56 1 l 1807 1 l 1807 176 l 56 176 z m 56 600 l 56 425 l 1661 425 l 1661 600 z m 56 849 l 1807 849 l 1807 1024 l 56 1024 z "},"":{"ha":1857,"x_min":0,"x_max":0,"o":"m 83 600 l 83 1 l 258 1 l 258 425 l 1689 425 l 1689 600 z m 83 849 l 1835 849 l 1835 1024 l 83 1024 z "},"":{"ha":1908,"x_min":0,"x_max":0,"o":"m 64 418 b 565 1 101 167 293 1 l 1460 1 b 1821 304 1676 1 1821 121 l 1821 600 l 1121 600 l 1121 425 l 1646 425 l 1646 301 b 1460 176 1646 222 1572 176 l 565 176 b 242 418 399 176 278 269 z m 239 593 b 565 849 269 749 393 849 l 1808 849 l 1808 1024 l 565 1024 b 61 593 289 1024 93 856 z "},"":{"ha":1899,"x_min":0,"x_max":0,"o":"m 38 733 l 213 733 l 213 818 l 1614 1 l 1789 1 l 1789 1024 l 1614 1024 l 1614 204 l 213 1024 l 38 1024 z "},"":{"ha":1825,"x_min":0,"x_max":0,"o":"m 381 151 b 740 1 469 61 614 1 l 1772 1 l 1772 176 l 813 176 b 451 326 685 176 540 236 l 268 513 l 451 697 b 813 849 540 789 685 849 l 1772 849 l 1772 1024 l 740 1024 b 381 875 614 1024 469 964 l 21 514 z "},"":{"ha":1793,"x_min":0,"x_max":0,"o":"m 1682 1024 l 1507 1024 l 1507 600 l 33 600 l 33 425 l 1507 425 l 1507 1 l 1682 1 z "},"":{"ha":1838,"x_min":0,"x_max":0,"o":"m 1610 425 b 1286 176 1576 274 1456 176 l 550 176 b 226 425 382 176 260 274 l 49 425 b 550 1 85 169 276 1 l 1286 1 b 1789 425 1561 1 1751 169 z m 1789 600 b 1286 1024 1753 857 1563 1024 l 550 1024 b 49 600 275 1024 83 857 l 226 600 b 550 849 260 751 382 849 l 1286 849 b 1610 600 1456 849 1576 751 z "},"":{"ha":1894,"x_min":0,"x_max":0,"o":"m 99 1 l 274 1 l 274 425 l 1488 425 b 1850 726 1706 425 1850 544 b 1488 1024 1850 910 1706 1024 l 99 1024 l 99 849 l 1488 849 b 1675 724 1600 849 1675 803 b 1488 600 1675 646 1600 600 l 99 600 z "},"":{"ha":1881,"x_min":0,"x_max":0,"o":"m 64 514 b 572 1 64 208 267 1 l 1258 1 l 1121 176 l 572 176 b 239 513 372 176 239 311 b 572 849 239 714 372 849 l 1307 849 b 1640 513 1507 849 1640 714 b 1483 221 1640 378 1582 276 l 1296 461 l 1160 351 l 1646 -272 l 1782 -162 l 1594 79 b 1815 514 1733 165 1815 319 b 1307 1024 1815 819 1613 1024 l 572 1024 b 64 514 267 1024 64 819 z "},"":{"ha":1807,"x_min":0,"x_max":0,"o":"m 599 600 l 1447 1 l 1750 1 l 1151 425 l 1388 425 b 1750 726 1606 425 1750 544 b 1388 1024 1750 910 1606 1024 l -1 1024 l 247 849 l 1388 849 b 1575 724 1500 849 1575 803 b 1388 600 1575 646 1500 600 z "},"":{"ha":1886,"x_min":0,"x_max":0,"o":"m 69 724 b 432 425 69 542 214 425 l 1458 425 b 1646 301 1571 425 1646 379 b 1458 176 1646 222 1571 176 l 69 176 l 69 1 l 1458 1 b 1821 304 1676 1 1821 121 b 1458 600 1821 486 1676 600 l 432 600 b 244 724 319 600 244 646 z m 69 849 l 1821 849 l 1821 1024 l 69 1024 z "},"":{"ha":1782,"x_min":0,"x_max":0,"o":"m 790 1 l 965 1 l 965 672 l 790 672 z m 15 849 l 1767 849 l 1767 1024 l 15 1024 z "},"":{"ha":1926,"x_min":0,"x_max":0,"o":"m 1839 514 l 1839 1024 l 1664 1024 l 1664 513 b 1331 176 1664 311 1531 176 l 1046 176 l 1046 1 l 1331 1 b 1839 514 1636 1 1839 208 z m 871 176 l 596 176 b 263 513 396 176 263 311 l 263 1024 l 88 1024 l 88 514 b 596 1 88 208 290 1 l 871 1 z "},"":{"ha":1765,"x_min":0,"x_max":0,"o":"m 1758 1024 l 1539 1024 l 989 288 l 1099 142 z m 775 1 l 993 1 l 226 1024 l 7 1024 z "},"":{"ha":1750,"x_min":0,"x_max":0,"o":"m 1101 569 l 1751 1024 l 1444 1024 l 965 688 z m 0 1024 l 781 392 l 781 1 l 956 1 l 957 469 l 279 1024 z "},"":{"ha":1865,"x_min":0,"x_max":0,"o":"m 349 1 l 1808 1 l 1808 176 l 708 176 z m 57 849 l 1146 849 l 1517 1024 l 57 1024 z m 1808 829 l 1808 1024 l 57 194 l 57 0 z "},"":{"ha":1835,"x_min":0,"x_max":0,"o":"m 36 514 b 544 1 36 208 239 1 l 1789 1 l 1789 176 l 544 176 b 211 513 344 176 211 311 z m 544 1024 b 143 849 361 1024 225 950 l 1788 849 l 1788 1024 z "},"":{"ha":1879,"x_min":0,"x_max":0,"o":"m 43 514 b 551 1 43 208 246 1 l 1446 1 b 1807 304 1663 1 1807 121 l 1807 600 l 1107 600 l 1107 425 l 1632 425 l 1632 301 b 1446 176 1632 222 1558 176 l 551 176 b 218 513 351 176 218 311 z m 551 1024 b 146 849 339 1024 175 950 l 1794 849 l 1794 1024 z "},"ﬁ":{"ha":1453,"x_min":0,"x_max":0,"o":"m 1175 0 l 1350 0 l 1350 729 l 1175 729 z m 49 599 l 49 424 l 181 424 l 181 0 l 356 0 l 356 424 l 924 424 l 924 599 l 356 599 l 356 638 b 542 844 356 764 429 844 l 1347 844 l 1347 1021 l 542 1021 b 181 642 326 1021 181 871 l 181 599 z "},"ﬂ":{"ha":1453,"x_min":0,"x_max":0,"o":"m 1175 0 l 1350 0 l 1350 1022 l 542 1022 b 181 643 326 1022 181 872 l 181 599 l 49 599 l 49 424 l 181 424 l 181 0 l 356 0 l 356 424 l 924 424 l 924 599 l 356 599 l 356 639 b 542 846 356 765 429 846 l 1175 846 z "},"ı":{"ha":379,"x_min":0,"x_max":0,"o":"m 101 0 l 276 0 l 276 758 l 101 758 z "},"À":{"ha":1774,"x_min":0,"x_max":0,"o":"m 886 874 l 1193 467 l 581 467 z m 996 1021 l 997 1022 l 778 1022 l 778 1021 l 11 0 l 231 0 l 449 292 l 1325 292 l 1543 0 l 1763 0 z m 926 1139 l 1029 1139 l 921 1401 l 746 1401 z "},"Á":{"ha":1774,"x_min":0,"x_max":0,"o":"m 886 874 l 1193 467 l 581 467 z m 996 1021 l 997 1022 l 778 1022 l 778 1021 l 11 0 l 231 0 l 449 292 l 1325 292 l 1543 0 l 1763 0 z m 1029 1401 l 854 1401 l 746 1139 l 849 1139 z "},"Â":{"ha":1774,"x_min":0,"x_max":0,"o":"m 886 874 l 1193 467 l 581 467 z m 996 1021 l 997 1022 l 778 1022 l 778 1021 l 11 0 l 231 0 l 449 292 l 1325 292 l 1543 0 l 1763 0 z m 635 1126 l 810 1126 l 888 1246 l 964 1126 l 1140 1126 l 939 1386 l 836 1386 z "},"Ã":{"ha":1774,"x_min":0,"x_max":0,"o":"m 886 874 l 1193 467 l 581 467 z m 996 1021 l 997 1022 l 778 1022 l 778 1021 l 11 0 l 231 0 l 449 292 l 1325 292 l 1543 0 l 1763 0 z m 729 1154 b 786 1244 729 1208 751 1244 b 1017 1154 843 1244 915 1154 b 1192 1389 1121 1154 1192 1247 l 1046 1389 b 988 1294 1046 1332 1024 1294 b 756 1389 931 1294 860 1389 b 583 1154 653 1389 583 1296 z "},"Ä":{"ha":1774,"x_min":0,"x_max":0,"o":"m 886 874 l 1193 467 l 581 467 z m 996 1021 l 997 1022 l 778 1022 l 778 1021 l 11 0 l 231 0 l 449 292 l 1325 292 l 1543 0 l 1763 0 z m 946 1315 l 946 1139 l 1121 1139 l 1121 1315 z m 654 1315 l 654 1139 l 829 1139 l 829 1315 z "},"Å":{"ha":1774,"x_min":0,"x_max":0,"o":"m 886 874 l 1193 467 l 581 467 z m 996 1021 l 997 1022 l 778 1022 l 778 1021 l 11 0 l 231 0 l 449 292 l 1325 292 l 1543 0 l 1763 0 z m 825 1292 b 886 1353 825 1325 853 1353 b 949 1292 921 1353 949 1325 b 886 1229 949 1258 921 1229 b 825 1292 853 1229 825 1258 z m 747 1292 b 886 1153 747 1214 810 1153 b 1026 1292 964 1153 1026 1214 b 886 1431 1026 1367 964 1431 b 747 1292 810 1431 747 1367 z "},"Ç":{"ha":1869,"x_min":0,"x_max":0,"o":"m 64 513 b 572 0 64 207 267 0 l 1815 0 l 1815 175 l 572 175 b 239 511 372 175 239 310 b 572 846 239 713 372 846 l 1815 846 l 1815 1022 l 572 1022 b 64 513 267 1022 64 817 z m 1107 -169 b 985 17 1107 -106 1057 -31 l 831 17 b 953 -110 904 -28 953 -79 b 764 -174 953 -149 876 -174 l 764 -349 b 1107 -169 969 -349 1107 -278 z "},"Đ":{"ha":1978,"x_min":0,"x_max":0,"o":"m 338 429 l 440 429 l 440 604 l 338 604 l 338 846 l 1406 846 b 1739 511 1606 846 1739 713 b 1406 175 1739 310 1606 175 l 338 175 z m 163 604 l 56 604 l 56 429 l 163 429 l 163 0 l 1406 0 b 1914 513 1711 0 1914 207 b 1406 1022 1914 817 1711 1022 l 163 1022 z "},"È":{"ha":1922,"x_min":0,"x_max":0,"o":"m 111 0 l 1863 0 l 1863 175 l 286 175 l 286 424 l 1717 424 l 1717 599 l 286 599 l 286 846 l 1863 846 l 1863 1022 l 111 1022 z m 1000 1139 l 1103 1139 l 994 1401 l 819 1401 z "},"É":{"ha":1922,"x_min":0,"x_max":0,"o":"m 111 0 l 1863 0 l 1863 175 l 286 175 l 286 424 l 1717 424 l 1717 599 l 286 599 l 286 846 l 1863 846 l 1863 1022 l 111 1022 z m 1103 1401 l 928 1401 l 819 1139 l 922 1139 z "},"Ê":{"ha":1922,"x_min":0,"x_max":0,"o":"m 111 0 l 1863 0 l 1863 175 l 286 175 l 286 424 l 1717 424 l 1717 599 l 286 599 l 286 846 l 1863 846 l 1863 1022 l 111 1022 z m 708 1126 l 883 1126 l 961 1246 l 1038 1126 l 1214 1126 l 1013 1386 l 910 1386 z "},"Ë":{"ha":1922,"x_min":0,"x_max":0,"o":"m 111 0 l 1863 0 l 1863 175 l 286 175 l 286 424 l 1717 424 l 1717 599 l 286 599 l 286 846 l 1863 846 l 1863 1022 l 111 1022 z m 1019 1315 l 1019 1139 l 1194 1139 l 1194 1315 z m 728 1315 l 728 1139 l 903 1139 l 903 1315 z "},"Ì":{"ha":399,"x_min":0,"x_max":0,"o":"m 286 0 l 286 1022 l 111 1022 l 111 0 z m 239 1139 l 342 1139 l 233 1401 l 58 1401 z "},"Í":{"ha":399,"x_min":0,"x_max":0,"o":"m 286 0 l 286 1022 l 111 1022 l 111 0 z m 340 1401 l 165 1401 l 57 1139 l 160 1139 z "},"Î":{"ha":399,"x_min":0,"x_max":0,"o":"m 286 0 l 286 1022 l 111 1022 l 111 0 z m -54 1126 l 121 1126 l 199 1246 l 275 1126 l 451 1126 l 250 1386 l 147 1386 z "},"Ï":{"ha":399,"x_min":0,"x_max":0,"o":"m 286 0 l 286 1022 l 111 1022 l 111 0 z m 257 1315 l 257 1139 l 432 1139 l 432 1315 z m -35 1315 l -35 1139 l 140 1139 l 140 1315 z "},"Ñ":{"ha":1974,"x_min":0,"x_max":0,"o":"m 1863 1022 l 1688 1022 l 1688 599 l 286 599 l 286 1022 l 111 1022 l 111 0 l 286 0 l 286 424 l 1688 424 l 1688 0 l 1863 0 z m 829 1154 b 886 1244 829 1208 851 1244 b 1117 1154 943 1244 1015 1154 b 1292 1389 1221 1154 1292 1247 l 1146 1389 b 1088 1294 1146 1332 1124 1294 b 856 1389 1031 1294 960 1389 b 683 1154 753 1389 683 1296 z "},"Ò":{"ha":1879,"x_min":0,"x_max":0,"o":"m 239 511 b 572 846 239 713 372 846 l 1307 846 b 1640 511 1507 846 1640 713 b 1307 175 1640 310 1507 175 l 572 175 b 239 511 372 175 239 310 z m 572 0 l 1307 0 b 1815 513 1613 0 1815 207 b 1307 1022 1815 817 1613 1022 l 572 1022 b 64 513 267 1022 64 817 b 572 0 64 207 267 0 z m 979 1139 l 1082 1139 l 974 1401 l 799 1401 z "},"Ó":{"ha":1879,"x_min":0,"x_max":0,"o":"m 239 511 b 572 846 239 713 372 846 l 1307 846 b 1640 511 1507 846 1640 713 b 1307 175 1640 310 1507 175 l 572 175 b 239 511 372 175 239 310 z m 572 0 l 1307 0 b 1815 513 1613 0 1815 207 b 1307 1022 1815 817 1613 1022 l 572 1022 b 64 513 267 1022 64 817 b 572 0 64 207 267 0 z m 1082 1401 l 907 1401 l 799 1139 l 901 1139 z "},"Ô":{"ha":1879,"x_min":0,"x_max":0,"o":"m 239 511 b 572 846 239 713 372 846 l 1307 846 b 1640 511 1507 846 1640 713 b 1307 175 1640 310 1507 175 l 572 175 b 239 511 372 175 239 310 z m 572 0 l 1307 0 b 1815 513 1613 0 1815 207 b 1307 1022 1815 817 1613 1022 l 572 1022 b 64 513 267 1022 64 817 b 572 0 64 207 267 0 z m 688 1126 l 863 1126 l 940 1246 l 1017 1126 l 1193 1126 l 992 1386 l 889 1386 z "},"Õ":{"ha":1879,"x_min":0,"x_max":0,"o":"m 239 511 b 572 846 239 713 372 846 l 1307 846 b 1640 511 1507 846 1640 713 b 1307 175 1640 310 1507 175 l 572 175 b 239 511 372 175 239 310 z m 572 0 l 1307 0 b 1815 513 1613 0 1815 207 b 1307 1022 1815 817 1613 1022 l 572 1022 b 64 513 267 1022 64 817 b 572 0 64 207 267 0 z m 782 1154 b 839 1244 782 1208 804 1244 b 1069 1154 896 1244 968 1154 b 1244 1389 1174 1154 1244 1247 l 1099 1389 b 1040 1294 1099 1332 1076 1294 b 808 1389 983 1294 913 1389 b 636 1154 706 1389 636 1296 z "},"Ö":{"ha":1879,"x_min":0,"x_max":0,"o":"m 239 511 b 572 846 239 713 372 846 l 1307 846 b 1640 511 1507 846 1640 713 b 1307 175 1640 310 1507 175 l 572 175 b 239 511 372 175 239 310 z m 572 0 l 1307 0 b 1815 513 1613 0 1815 207 b 1307 1022 1815 817 1613 1022 l 572 1022 b 64 513 267 1022 64 817 b 572 0 64 207 267 0 z m 999 1315 l 999 1139 l 1174 1139 l 1174 1315 z m 707 1315 l 707 1139 l 882 1139 l 882 1315 z "},"Š":{"ha":1899,"x_min":0,"x_max":0,"o":"m 74 725 b 436 424 74 543 218 424 l 1463 424 b 1650 299 1575 424 1650 378 b 1463 175 1650 221 1575 175 l 74 175 l 74 0 l 1463 0 b 1825 303 1681 0 1825 119 b 1463 599 1825 485 1681 599 l 436 599 b 249 722 324 599 249 643 b 436 846 249 801 324 846 l 1825 846 l 1825 1022 l 436 1022 b 74 725 218 1022 74 908 z m 899 1126 l 1001 1126 l 1203 1386 l 1026 1386 l 950 1267 l 872 1386 l 697 1386 z "},"Ù":{"ha":1926,"x_min":0,"x_max":0,"o":"m 1839 1022 l 1664 1022 l 1664 511 b 1331 175 1664 310 1531 175 l 596 175 b 263 511 396 175 263 310 l 263 1022 l 88 1022 l 88 513 b 596 0 88 207 290 0 l 1331 0 b 1839 513 1636 0 1839 207 z m 1003 1139 l 1106 1139 l 997 1401 l 822 1401 z "},"Ú":{"ha":1926,"x_min":0,"x_max":0,"o":"m 1839 1022 l 1664 1022 l 1664 511 b 1331 175 1664 310 1531 175 l 596 175 b 263 511 396 175 263 310 l 263 1022 l 88 1022 l 88 513 b 596 0 88 207 290 0 l 1331 0 b 1839 513 1636 0 1839 207 z m 1106 1401 l 931 1401 l 822 1139 l 925 1139 z "},"Û":{"ha":1926,"x_min":0,"x_max":0,"o":"m 1839 1022 l 1664 1022 l 1664 511 b 1331 175 1664 310 1531 175 l 596 175 b 263 511 396 175 263 310 l 263 1022 l 88 1022 l 88 513 b 596 0 88 207 290 0 l 1331 0 b 1839 513 1636 0 1839 207 z m 711 1126 l 886 1126 l 964 1246 l 1040 1126 l 1217 1126 l 1015 1386 l 913 1386 z "},"Ü":{"ha":1926,"x_min":0,"x_max":0,"o":"m 1839 1022 l 1664 1022 l 1664 511 b 1331 175 1664 310 1531 175 l 596 175 b 263 511 396 175 263 310 l 263 1022 l 88 1022 l 88 513 b 596 0 88 207 290 0 l 1331 0 b 1839 513 1636 0 1839 207 z m 1022 1315 l 1022 1139 l 1197 1139 l 1197 1315 z m 731 1315 l 731 1139 l 906 1139 l 906 1315 z "},"Ÿ":{"ha":1751,"x_min":0,"x_max":0,"o":"m 781 467 l 781 0 l 956 0 l 956 468 l 957 467 l 1751 1022 l 1444 1022 l 869 619 l 304 1022 l 0 1022 z m 935 1315 l 935 1139 l 1110 1139 l 1110 1315 z m 643 1315 l 643 1139 l 818 1139 l 818 1315 z "},"Ý":{"ha":1751,"x_min":0,"x_max":0,"o":"m 781 467 l 781 0 l 956 0 l 956 468 l 957 467 l 1751 1022 l 1444 1022 l 869 619 l 304 1022 l 0 1022 z m 1018 1401 l 843 1401 l 735 1139 l 838 1139 z "},"Ž":{"ha":1865,"x_min":0,"x_max":0,"o":"m 1808 828 l 1808 1022 l 57 1022 l 57 846 l 1438 846 l 57 193 l 57 -1 l 60 0 l 1808 0 l 1808 175 l 431 175 z m 882 1126 l 985 1126 l 1186 1386 l 1010 1386 l 933 1267 l 856 1386 l 681 1386 z "},"à":{"ha":1329,"x_min":0,"x_max":0,"o":"m 1061 175 l 400 175 b 242 233 288 175 242 192 b 400 292 242 276 288 292 l 901 292 b 1061 313 963 292 1015 299 z m 901 758 l 111 758 l 111 583 l 901 583 b 1060 525 1014 583 1060 568 b 901 467 1060 483 1014 467 l 400 467 b 67 236 182 467 67 382 b 400 0 67 90 182 0 l 1236 0 l 1236 525 l 1235 525 b 901 758 1235 714 1058 758 z m 704 846 l 807 846 l 699 1108 l 524 1108 z "},"á":{"ha":1329,"x_min":0,"x_max":0,"o":"m 1061 175 l 400 175 b 242 233 288 175 242 192 b 400 292 242 276 288 292 l 901 292 b 1061 313 963 292 1015 299 z m 901 758 l 111 758 l 111 583 l 901 583 b 1060 525 1014 583 1060 568 b 901 467 1060 483 1014 467 l 400 467 b 67 236 182 467 67 382 b 400 0 67 90 182 0 l 1236 0 l 1236 525 l 1235 525 b 901 758 1235 714 1058 758 z m 807 1108 l 632 1108 l 524 846 l 626 846 z "},"â":{"ha":1329,"x_min":0,"x_max":0,"o":"m 1061 175 l 400 175 b 242 233 288 175 242 192 b 400 292 242 276 288 292 l 901 292 b 1061 313 963 292 1015 299 z m 901 758 l 111 758 l 111 583 l 901 583 b 1060 525 1014 583 1060 568 b 901 467 1060 483 1014 467 l 400 467 b 67 236 182 467 67 382 b 400 0 67 90 182 0 l 1236 0 l 1236 525 l 1235 525 b 901 758 1235 714 1058 758 z m 413 833 l 588 833 l 665 953 l 742 833 l 918 833 l 717 1093 l 614 1093 z "},"ã":{"ha":1329,"x_min":0,"x_max":0,"o":"m 1061 175 l 400 175 b 242 233 288 175 242 192 b 400 292 242 276 288 292 l 901 292 b 1061 313 963 292 1015 299 z m 901 758 l 111 758 l 111 583 l 901 583 b 1060 525 1014 583 1060 568 b 901 467 1060 483 1014 467 l 400 467 b 67 236 182 467 67 382 b 400 0 67 90 182 0 l 1236 0 l 1236 525 l 1235 525 b 901 758 1235 714 1058 758 z m 507 861 b 564 951 507 915 529 951 b 794 861 621 951 693 861 b 969 1096 899 861 969 954 l 824 1096 b 765 1001 824 1039 801 1001 b 533 1096 708 1001 638 1096 b 361 861 431 1096 361 1003 z "},"ä":{"ha":1329,"x_min":0,"x_max":0,"o":"m 1061 175 l 400 175 b 242 233 288 175 242 192 b 400 292 242 276 288 292 l 901 292 b 1061 313 963 292 1015 299 z m 901 758 l 111 758 l 111 583 l 901 583 b 1060 525 1014 583 1060 568 b 901 467 1060 483 1014 467 l 400 467 b 67 236 182 467 67 382 b 400 0 67 90 182 0 l 1236 0 l 1236 525 l 1235 525 b 901 758 1235 714 1058 758 z m 724 1022 l 724 846 l 899 846 l 899 1022 z m 432 1022 l 432 846 l 607 846 l 607 1022 z "},"å":{"ha":1329,"x_min":0,"x_max":0,"o":"m 1061 175 l 400 175 b 242 233 288 175 242 192 b 400 292 242 276 288 292 l 901 292 b 1061 313 963 292 1015 299 z m 901 758 l 111 758 l 111 583 l 901 583 b 1060 525 1014 583 1060 568 b 901 467 1060 483 1014 467 l 400 467 b 67 236 182 467 67 382 b 400 0 67 90 182 0 l 1236 0 l 1236 525 l 1235 525 b 901 758 1235 714 1058 758 z m 603 999 b 664 1060 603 1032 631 1060 b 726 999 699 1060 726 1032 b 664 936 726 965 699 936 b 603 999 631 936 603 965 z m 525 999 b 664 860 525 921 588 860 b 804 999 742 860 804 921 b 664 1138 804 1074 742 1138 b 525 999 588 1138 525 1074 z "},"ç":{"ha":1301,"x_min":0,"x_max":0,"o":"m 67 376 b 429 0 67 146 211 0 l 1235 0 l 1235 175 l 429 175 b 242 375 317 175 242 250 b 429 582 242 500 317 582 l 1235 582 l 1235 757 l 429 757 b 67 376 211 757 67 607 z m 822 -169 b 700 17 822 -106 772 -31 l 546 17 b 668 -110 619 -28 668 -79 b 479 -174 668 -149 592 -174 l 479 -349 b 822 -169 685 -349 822 -278 z "},"è":{"ha":1314,"x_min":0,"x_max":0,"o":"m 257 465 b 429 582 285 539 346 582 l 872 582 b 1044 465 960 582 1028 536 z m 67 376 b 429 0 67 146 211 0 l 1235 0 l 1235 175 l 429 175 b 257 290 346 175 283 218 l 1233 290 l 1233 376 b 872 757 1233 606 1089 757 l 429 757 b 67 376 211 757 67 607 z m 696 846 l 799 846 l 690 1108 l 515 1108 z "},"é":{"ha":1314,"x_min":0,"x_max":0,"o":"m 257 465 b 429 582 285 539 346 582 l 872 582 b 1044 465 960 582 1028 536 z m 67 376 b 429 0 67 146 211 0 l 1235 0 l 1235 175 l 429 175 b 257 290 346 175 283 218 l 1233 290 l 1233 376 b 872 757 1233 606 1089 757 l 429 757 b 67 376 211 757 67 607 z m 799 1108 l 624 1108 l 515 846 l 618 846 z "},"ê":{"ha":1314,"x_min":0,"x_max":0,"o":"m 257 465 b 429 582 285 539 346 582 l 872 582 b 1044 465 960 582 1028 536 z m 67 376 b 429 0 67 146 211 0 l 1235 0 l 1235 175 l 429 175 b 257 290 346 175 283 218 l 1233 290 l 1233 376 b 872 757 1233 606 1089 757 l 429 757 b 67 376 211 757 67 607 z m 404 833 l 579 833 l 657 953 l 733 833 l 910 833 l 708 1093 l 606 1093 z "},"ë":{"ha":1314,"x_min":0,"x_max":0,"o":"m 257 465 b 429 582 285 539 346 582 l 872 582 b 1044 465 960 582 1028 536 z m 67 376 b 429 0 67 146 211 0 l 1235 0 l 1235 175 l 429 175 b 257 290 346 175 283 218 l 1233 290 l 1233 376 b 872 757 1233 606 1089 757 l 429 757 b 67 376 211 757 67 607 z m 715 1022 l 715 846 l 890 846 l 890 1022 z m 424 1022 l 424 846 l 599 846 l 599 1022 z "},"ì":{"ha":379,"x_min":0,"x_max":0,"o":"m 101 0 l 276 0 l 276 758 l 101 758 z m 229 846 l 332 846 l 224 1108 l 49 1108 z "},"í":{"ha":379,"x_min":0,"x_max":0,"o":"m 101 0 l 276 0 l 276 758 l 101 758 z m 331 1108 l 156 1108 l 47 846 l 150 846 z "},"î":{"ha":379,"x_min":0,"x_max":0,"o":"m 101 0 l 276 0 l 276 758 l 101 758 z m -64 833 l 111 833 l 189 953 l 265 833 l 442 833 l 240 1093 l 138 1093 z "},"ï":{"ha":379,"x_min":0,"x_max":0,"o":"m 101 0 l 276 0 l 276 758 l 101 758 z m 247 1022 l 247 846 l 422 846 l 422 1022 z m -44 1022 l -44 846 l 131 846 l 131 1022 z "},"ñ":{"ha":1347,"x_min":0,"x_max":0,"o":"m 1269 335 b 761 758 1269 590 1067 758 l 101 758 l 101 0 l 276 0 l 276 583 l 761 583 b 1094 336 960 583 1094 483 l 1094 0 l 1269 0 z m 515 861 b 572 951 515 915 538 951 b 803 861 629 951 701 861 b 978 1096 907 861 978 954 l 832 1096 b 774 1001 832 1039 810 1001 b 542 1096 717 1001 646 1096 b 369 861 439 1096 369 1003 z "},"ò":{"ha":1301,"x_min":0,"x_max":0,"o":"m 242 375 b 429 582 242 500 317 582 l 872 582 b 1060 375 985 582 1060 500 b 872 175 1060 250 985 175 l 429 175 b 242 375 317 175 242 250 z m 429 0 l 872 0 b 1235 376 1090 0 1235 146 b 872 757 1235 607 1090 757 l 429 757 b 67 376 211 757 67 607 b 429 0 67 146 211 0 z m 690 846 l 793 846 l 685 1108 l 510 1108 z "},"ó":{"ha":1301,"x_min":0,"x_max":0,"o":"m 242 375 b 429 582 242 500 317 582 l 872 582 b 1060 375 985 582 1060 500 b 872 175 1060 250 985 175 l 429 175 b 242 375 317 175 242 250 z m 429 0 l 872 0 b 1235 376 1090 0 1235 146 b 872 757 1235 607 1090 757 l 429 757 b 67 376 211 757 67 607 b 429 0 67 146 211 0 z m 793 1108 l 618 1108 l 510 846 l 613 846 z "},"ô":{"ha":1301,"x_min":0,"x_max":0,"o":"m 242 375 b 429 582 242 500 317 582 l 872 582 b 1060 375 985 582 1060 500 b 872 175 1060 250 985 175 l 429 175 b 242 375 317 175 242 250 z m 429 0 l 872 0 b 1235 376 1090 0 1235 146 b 872 757 1235 607 1090 757 l 429 757 b 67 376 211 757 67 607 b 429 0 67 146 211 0 z m 399 833 l 574 833 l 651 953 l 728 833 l 904 833 l 703 1093 l 600 1093 z "},"õ":{"ha":1301,"x_min":0,"x_max":0,"o":"m 242 375 b 429 582 242 500 317 582 l 872 582 b 1060 375 985 582 1060 500 b 872 175 1060 250 985 175 l 429 175 b 242 375 317 175 242 250 z m 429 0 l 872 0 b 1235 376 1090 0 1235 146 b 872 757 1235 607 1090 757 l 429 757 b 67 376 211 757 67 607 b 429 0 67 146 211 0 z m 493 861 b 550 951 493 915 515 951 b 781 861 607 951 679 861 b 956 1096 885 861 956 954 l 810 1096 b 751 1001 810 1039 788 1001 b 519 1096 694 1001 624 1096 b 347 861 417 1096 347 1003 z "},"ö":{"ha":1301,"x_min":0,"x_max":0,"o":"m 242 375 b 429 582 242 500 317 582 l 872 582 b 1060 375 985 582 1060 500 b 872 175 1060 250 985 175 l 429 175 b 242 375 317 175 242 250 z m 429 0 l 872 0 b 1235 376 1090 0 1235 146 b 872 757 1235 607 1090 757 l 429 757 b 67 376 211 757 67 607 b 429 0 67 146 211 0 z m 710 1022 l 710 846 l 885 846 l 885 1022 z m 418 1022 l 418 846 l 593 846 l 593 1022 z "},"š":{"ha":1313,"x_min":0,"x_max":0,"o":"m 78 528 b 411 292 78 382 193 292 l 913 292 b 1071 233 1025 292 1071 276 b 913 175 1071 192 1025 175 l 78 175 l 78 0 l 913 0 b 1246 236 1131 0 1246 90 b 913 467 1246 382 1131 467 l 411 467 b 253 525 299 467 253 483 b 411 583 253 568 299 583 l 1201 583 l 1201 758 l 411 758 b 78 528 193 758 78 674 z m 606 833 l 708 833 l 910 1093 l 733 1093 l 657 974 l 579 1093 l 404 1093 z "},"ù":{"ha":1321,"x_min":0,"x_max":0,"o":"m 1244 758 l 1069 758 l 1069 424 b 736 175 1069 276 935 175 l 585 175 b 251 424 385 175 251 279 l 251 758 l 76 758 l 76 425 b 585 0 76 169 279 0 l 736 0 b 1244 425 1042 0 1244 169 z m 700 846 l 803 846 l 694 1108 l 519 1108 z "},"ú":{"ha":1321,"x_min":0,"x_max":0,"o":"m 1244 758 l 1069 758 l 1069 424 b 736 175 1069 276 935 175 l 585 175 b 251 424 385 175 251 279 l 251 758 l 76 758 l 76 425 b 585 0 76 169 279 0 l 736 0 b 1244 425 1042 0 1244 169 z m 803 1108 l 628 1108 l 519 846 l 622 846 z "},"û":{"ha":1321,"x_min":0,"x_max":0,"o":"m 1244 758 l 1069 758 l 1069 424 b 736 175 1069 276 935 175 l 585 175 b 251 424 385 175 251 279 l 251 758 l 76 758 l 76 425 b 585 0 76 169 279 0 l 736 0 b 1244 425 1042 0 1244 169 z m 408 833 l 583 833 l 661 953 l 738 833 l 914 833 l 713 1093 l 610 1093 z "},"ü":{"ha":1321,"x_min":0,"x_max":0,"o":"m 1244 758 l 1069 758 l 1069 424 b 736 175 1069 276 935 175 l 585 175 b 251 424 385 175 251 279 l 251 758 l 76 758 l 76 425 b 585 0 76 169 279 0 l 736 0 b 1244 425 1042 0 1244 169 z m 719 1022 l 719 846 l 894 846 l 894 1022 z m 428 1022 l 428 846 l 603 846 l 603 1022 z "},"ý":{"ha":1347,"x_min":0,"x_max":0,"o":"m 1246 657 l 1244 657 l 1244 758 l 1069 758 l 1069 424 b 736 175 1069 276 935 175 l 585 175 b 251 424 385 175 251 279 l 251 758 l 76 758 l 76 425 b 585 0 76 169 279 0 l 736 0 b 1071 90 871 0 985 32 l 1071 19 b 883 -189 1071 -107 996 -189 l 78 -189 l 78 -364 l 883 -364 b 1246 15 1100 -364 1246 -214 z m 815 1108 l 640 1108 l 532 846 l 635 846 z "},"ÿ":{"ha":1347,"x_min":0,"x_max":0,"o":"m 1246 657 l 1244 657 l 1244 758 l 1069 758 l 1069 424 b 736 175 1069 276 935 175 l 585 175 b 251 424 385 175 251 279 l 251 758 l 76 758 l 76 425 b 585 0 76 169 279 0 l 736 0 b 1071 90 871 0 985 32 l 1071 19 b 883 -189 1071 -107 996 -189 l 78 -189 l 78 -364 l 883 -364 b 1246 15 1100 -364 1246 -214 z m 732 1022 l 732 846 l 907 846 l 907 1022 z m 440 1022 l 440 846 l 615 846 l 615 1022 z "},"ž":{"ha":1338,"x_min":0,"x_max":0,"o":"m 1267 565 l 1267 758 l 69 758 l 69 583 l 896 583 l 69 193 l 69 -1 l 72 0 l 1267 0 l 1267 175 l 443 175 z m 618 833 l 721 833 l 922 1093 l 746 1093 l 669 974 l 592 1093 l 417 1093 z "}}}
